# xmcd
#
# Track frame offsets:
#	150
#	10643
#	23831
#	40654
#	58259
#	75637
#	108982
#	122328
#	136982
#	151654
#	165750
#	176387
#	191440
#	209737
#	227077
#
# Disc length: 3285 seconds
#
# Revision: 1
# Processed by: cddbd v1.5.2PL0 Copyright (c) Steve Scherf et al.
# Submitted via: audiograbber 1.83.01
#
DISCID=ac0cd30f
DTITLE=Natascha and The Bluescrackers - Power On
DYEAR=2010
DGENRE=Blues
TTITLE0=the katie lee
TTITLE1=I´m feeling good
TTITLE2=hound dog
TTITLE3=mother in law
TTITLE4=judgement day
TTITLE5=It´s mighty hard
TTITLE6=ramble boogie
TTITLE7=hard loving mama
TTITLE8=I know thats right
TTITLE9=something you got baby
TTITLE10=papa tree top boogie
TTITLE11=statesboro blues
TTITLE12=I belive i am in love with you
TTITLE13=spellbound
TTITLE14=your good thing
EXTD=
EXTT0=
EXTT1=
EXTT2=
EXTT3=
EXTT4=
EXTT5=
EXTT6=
EXTT7=
EXTT8=
EXTT9=
EXTT10=
EXTT11=
EXTT12=
EXTT13=
EXTT14=
PLAYORDER=
